<?xml version="1.0" encoding="utf-8"?>
<!-- Generated by Mocodo 4.2.4 -->
<svg width="693" height="591" viewBox="0 0 693 591" xmlns="http://www.w3.org/2000/svg">
<rect x="0" y="0" width="693" height="591" fill="#ffffbf" stroke="none" stroke-width="0"/>

<!-- Association POSTER -->
<g>
	<line x1="60" y1="77" x2="175" y2="77" stroke="#66bd63" stroke-width="2"/>
	<line x1="175" y1="212" x2="175" y2="77" stroke="#66bd63" stroke-width="2"/>
	<g>
		<path d="M193 52 a14 14 90 0 1 14 14 V77 h-64 V66 a14 14 90 0 1 14 -14" fill="#a6d96a" stroke="#a6d96a" stroke-width="0"/>
		<path d="M207 77 v11 a14 14 90 0 1 -14 14 H157 a14 14 90 0 1 -14 -14 V77 H64" fill="#d9ef8b" stroke="#d9ef8b" stroke-width="0"/>
		<rect x="143" y="52" width="64" height="50" fill="none" rx="14" stroke="#66bd63" stroke-width="2"/>
		<line x1="143" y1="77" x2="207" y2="77" stroke="#66bd63" stroke-width="1"/>
		<text x="151" y="69.75" fill="#000000" font-family="Verdana" font-size="12">POSTER</text>
	</g>
	<text x="116" y="94" fill="#d73027" font-family="Verdana" font-size="12">0,N</text>
	<text x="180" y="162" fill="#d73027" font-family="Verdana" font-size="12">1,1</text>
</g>

<!-- Association REPONDRE -->
<g>
	<line x1="60" y1="77" x2="60" y2="212" stroke="#66bd63" stroke-width="2"/>
	<line x1="175" y1="212" x2="60" y2="212" stroke="#66bd63" stroke-width="2"/>
	<g>
		<path d="M87 187 a14 14 90 0 1 14 14 V212 h-82 V201 a14 14 90 0 1 14 -14" fill="#a6d96a" stroke="#a6d96a" stroke-width="0"/>
		<path d="M101 212 v11 a14 14 90 0 1 -14 14 H33 a14 14 90 0 1 -14 -14 V212 H82" fill="#d9ef8b" stroke="#d9ef8b" stroke-width="0"/>
		<rect x="19" y="187" width="82" height="50" fill="none" rx="14" stroke="#66bd63" stroke-width="2"/>
		<line x1="19" y1="212" x2="101" y2="212" stroke="#66bd63" stroke-width="1"/>
		<text x="26" y="204.75" fill="#000000" font-family="Verdana" font-size="12">REPONDRE</text>
	</g>
	<text x="65" y="162" fill="#d73027" font-family="Verdana" font-size="12">0,N</text>
	<text x="112" y="229" fill="#d73027" font-family="Verdana" font-size="12">1,1</text>
</g>

<!-- Association RELIER -->
<g>
	<line x1="175" y1="212" x2="287" y2="212" stroke="#66bd63" stroke-width="2"/>
	<line x1="287" y1="77" x2="287" y2="212" stroke="#66bd63" stroke-width="2"/>
	<g>
		<path d="M303 187 a14 14 90 0 1 14 14 V212 h-60 V201 a14 14 90 0 1 14 -14" fill="#a6d96a" stroke="#a6d96a" stroke-width="0"/>
		<path d="M317 212 v11 a14 14 90 0 1 -14 14 H271 a14 14 90 0 1 -14 -14 V212 H60" fill="#d9ef8b" stroke="#d9ef8b" stroke-width="0"/>
		<rect x="257" y="187" width="60" height="50" fill="none" rx="14" stroke="#66bd63" stroke-width="2"/>
		<line x1="257" y1="212" x2="317" y2="212" stroke="#66bd63" stroke-width="1"/>
		<text x="265" y="204.75" fill="#000000" font-family="Verdana" font-size="12">RELIER</text>
	</g>
	<text x="217" y="229" fill="#d73027" font-family="Verdana" font-size="12">1,1</text>
	<text x="292" y="128" fill="#d73027" font-family="Verdana" font-size="12">0,N</text>
</g>

<!-- Association RECHERCHER_L -->
<g>
	<line x1="367" y1="346" x2="498" y2="346" stroke="#66bd63" stroke-width="2"/>
	<line x1="635" y1="346" x2="498" y2="346" stroke="#66bd63" stroke-width="2"/>
	<g>
		<path d="M540 321 a14 14 90 0 1 14 14 V346 h-112 V335 a14 14 90 0 1 14 -14" fill="#a6d96a" stroke="#a6d96a" stroke-width="0"/>
		<path d="M554 346 v11 a14 14 90 0 1 -14 14 H456 a14 14 90 0 1 -14 -14 V346 H112" fill="#d9ef8b" stroke="#d9ef8b" stroke-width="0"/>
		<rect x="442" y="321" width="112" height="50" fill="none" rx="14" stroke="#66bd63" stroke-width="2"/>
		<line x1="442" y1="346" x2="554" y2="346" stroke="#66bd63" stroke-width="1"/>
		<text x="449" y="338.75" fill="#000000" font-family="Verdana" font-size="12">RECHERCHER_L</text>
	</g>
	<text x="415" y="363" fill="#d73027" font-family="Verdana" font-size="12">1,1</text>
	<text x="559" y="363" fill="#d73027" font-family="Verdana" font-size="12">0,N</text>
</g>

<!-- Association APPARTENIR -->
<g>
	<line x1="635" y1="531" x2="635" y2="430" stroke="#66bd63" stroke-width="2"/>
	<line x1="635" y1="346" x2="635" y2="430" stroke="#66bd63" stroke-width="2"/>
	<g>
		<path d="M667 405 a14 14 90 0 1 14 14 V430 h-92 V419 a14 14 90 0 1 14 -14" fill="#a6d96a" stroke="#a6d96a" stroke-width="0"/>
		<path d="M681 430 v11 a14 14 90 0 1 -14 14 H603 a14 14 90 0 1 -14 -14 V430 H92" fill="#d9ef8b" stroke="#d9ef8b" stroke-width="0"/>
		<rect x="589" y="405" width="92" height="50" fill="none" rx="14" stroke="#66bd63" stroke-width="2"/>
		<line x1="589" y1="430" x2="681" y2="430" stroke="#66bd63" stroke-width="1"/>
		<text x="596" y="422.75" fill="#000000" font-family="Verdana" font-size="12">APPARTENIR</text>
	</g>
	<text x="640" y="472" fill="#d73027" font-family="Verdana" font-size="12">1,1</text>
	<text x="640" y="397" fill="#d73027" font-family="Verdana" font-size="12">0,N</text>
</g>

<!-- Entity UTILISATEURS -->
<g>
	<g>
		<rect x="9" y="9" width="102" height="25" fill="#fdae61" stroke="none" stroke-width="0" opacity="1"/>
		<rect x="9" y="34" width="102" height="111" fill="#fee08b" stroke="none" stroke-width="0" opacity="1"/>
		<rect x="9" y="9" width="102" height="136" fill="none" stroke="#f46d43" stroke-width="2" opacity="1"/>
		<line x1="9" y1="34" x2="111" y2="34" stroke="#f46d43" stroke-width="1"/>
	</g>
	<text x="15" y="26.75" fill="#000000" font-family="Verdana" font-size="12">UTILISATEURS</text>
	<text x="14" y="51.8" fill="#000000" font-family="Verdana" font-size="12">idUtilisateur</text>
	<line x1="14" y1="54" x2="87" y2="54" stroke="#000000" stroke-width="1"/>
	<text x="14" y="68.8" fill="#000000" font-family="Verdana" font-size="12">nom</text>
	<text x="14" y="85.8" fill="#000000" font-family="Verdana" font-size="12">prenom</text>
	<text x="14" y="102.8" fill="#000000" font-family="Verdana" font-size="12">age</text>
	<text x="14" y="119.8" fill="#000000" font-family="Verdana" font-size="12">adresseMail</text>
	<text x="14" y="136.8" fill="#000000" font-family="Verdana" font-size="12">mdp</text>
</g>

<!-- Entity CATEGORIE -->
<g>
	<g>
		<rect x="239" y="43" width="96" height="25" fill="#fdae61" stroke="none" stroke-width="0" opacity="1"/>
		<rect x="239" y="68" width="96" height="43" fill="#fee08b" stroke="none" stroke-width="0" opacity="1"/>
		<rect x="239" y="43" width="96" height="68" fill="none" stroke="#f46d43" stroke-width="2" opacity="1"/>
		<line x1="239" y1="68" x2="335" y2="68" stroke="#f46d43" stroke-width="1"/>
	</g>
	<text x="251" y="60.75" fill="#000000" font-family="Verdana" font-size="12">CATEGORIE</text>
	<text x="244" y="85.8" fill="#000000" font-family="Verdana" font-size="12">idCategorie</text>
	<line x1="244" y1="88" x2="314" y2="88" stroke="#000000" stroke-width="1"/>
	<text x="244" y="102.8" fill="#000000" font-family="Verdana" font-size="12">nomCategorie</text>
</g>

<!-- Entity ANNONCE -->
<g>
	<g>
		<rect x="138" y="170" width="74" height="25" fill="#fdae61" stroke="none" stroke-width="0" opacity="1"/>
		<rect x="138" y="195" width="74" height="59" fill="#fee08b" stroke="none" stroke-width="0" opacity="1"/>
		<rect x="138" y="170" width="74" height="84" fill="none" stroke="#f46d43" stroke-width="2" opacity="1"/>
		<line x1="138" y1="195" x2="212" y2="195" stroke="#f46d43" stroke-width="1"/>
	</g>
	<text x="144" y="187.75" fill="#000000" font-family="Verdana" font-size="12">ANNONCE</text>
	<text x="143" y="212.8" fill="#000000" font-family="Verdana" font-size="12">idAnnonce</text>
	<line x1="143" y1="215" x2="206" y2="215" stroke="#000000" stroke-width="1"/>
	<text x="143" y="229.8" fill="#000000" font-family="Verdana" font-size="12">titre</text>
	<text x="143" y="246.8" fill="#000000" font-family="Verdana" font-size="12">dureePret</text>
</g>

<!-- Entity ANNONCE_L -->
<g>
	<g>
		<rect x="324" y="304" width="86" height="25" fill="#fdae61" stroke="none" stroke-width="0" opacity="1"/>
		<rect x="324" y="329" width="86" height="59" fill="#fee08b" stroke="none" stroke-width="0" opacity="1"/>
		<rect x="324" y="304" width="86" height="84" fill="none" stroke="#f46d43" stroke-width="2" opacity="1"/>
		<line x1="324" y1="329" x2="410" y2="329" stroke="#f46d43" stroke-width="1"/>
	</g>
	<text x="329" y="321.75" fill="#000000" font-family="Verdana" font-size="12">ANNONCE_L</text>
	<text x="329" y="346.8" fill="#000000" font-family="Verdana" font-size="12">idAnnonce</text>
	<line x1="329" y1="349" x2="392" y2="349" stroke="#000000" stroke-width="1"/>
	<text x="329" y="363.8" fill="#000000" font-family="Verdana" font-size="12">titre</text>
	<text x="329" y="380.8" fill="#000000" font-family="Verdana" font-size="12">dureePret</text>
</g>

<!-- Entity CATEGORIE_L -->
<g>
	<g>
		<rect x="586" y="312" width="98" height="25" fill="#fdae61" stroke="none" stroke-width="0" opacity="1"/>
		<rect x="586" y="337" width="98" height="43" fill="#fee08b" stroke="none" stroke-width="0" opacity="1"/>
		<rect x="586" y="312" width="98" height="68" fill="none" stroke="#f46d43" stroke-width="2" opacity="1"/>
		<line x1="586" y1="337" x2="684" y2="337" stroke="#f46d43" stroke-width="1"/>
	</g>
	<text x="592" y="329.75" fill="#000000" font-family="Verdana" font-size="12">CATEGORIE_L</text>
	<text x="591" y="354.8" fill="#000000" font-family="Verdana" font-size="12">idCategorie</text>
	<line x1="591" y1="357" x2="661" y2="357" stroke="#000000" stroke-width="1"/>
	<text x="591" y="371.8" fill="#000000" font-family="Verdana" font-size="12">nomCategorie</text>
</g>

<!-- Entity BIEN -->
<g>
	<g>
		<rect x="596" y="480" width="78" height="25" fill="#fdae61" stroke="none" stroke-width="0" opacity="1"/>
		<rect x="596" y="505" width="78" height="77" fill="#fee08b" stroke="none" stroke-width="0" opacity="1"/>
		<rect x="596" y="480" width="78" height="102" fill="none" stroke="#f46d43" stroke-width="2" opacity="1"/>
		<line x1="596" y1="505" x2="674" y2="505" stroke="#f46d43" stroke-width="1"/>
	</g>
	<text x="620" y="497.75" fill="#000000" font-family="Verdana" font-size="12">BIEN</text>
	<text x="601" y="522.8" fill="#000000" font-family="Verdana" font-size="12">idBien</text>
	<line x1="601" y1="525" x2="639" y2="525" stroke="#000000" stroke-width="1"/>
	<text x="601" y="539.8" fill="#000000" font-family="Verdana" font-size="12">nom</text>
	<text x="601" y="556.8" fill="#000000" font-family="Verdana" font-size="12">description</text>
	<text x="601" y="573.8" fill="#000000" font-family="Verdana" font-size="12">etat</text>
</g>
</svg>